<svg width="18" height="18" viewBox="0 0 18 18" fill="none" xmlns="http://www.w3.org/2000/svg">
<path fill-rule="evenodd" clip-rule="evenodd" d="M14.8288 6.06647C14.8339 6.19764 14.8356 6.32875 14.8356 6.45991C14.8356 10.4366 12.0382 15.0274 6.9228 15.0274C5.35143 15.0274 3.89028 14.5266 2.65918 13.674C2.8768 13.6978 3.09781 13.7158 3.32221 13.7158C4.62509 13.7158 5.8251 13.2327 6.77697 12.4219C5.56 12.404 4.5324 11.5276 4.17799 10.3352C4.34813 10.371 4.52334 10.3889 4.70252 10.3889C4.95519 10.3889 5.2005 10.3532 5.43564 10.2816C4.16215 10.0074 3.20295 8.79118 3.20295 7.33049C3.20295 7.3126 3.20295 7.3066 3.20295 7.29468C3.57827 7.51527 4.00784 7.65233 4.46399 7.67022C3.71674 7.12767 3.22554 6.20359 3.22554 5.16024C3.22554 4.61174 3.36233 4.09302 3.60312 3.64587C4.9744 5.47024 7.02455 6.66862 9.33583 6.79382C9.28834 6.57323 9.26403 6.34077 9.26403 6.10825C9.26403 4.44485 10.5093 3.09741 12.0456 3.09741C12.8454 3.09741 13.5678 3.46115 14.0748 4.04542C14.7096 3.91426 15.3042 3.66387 15.8423 3.31808C15.6337 4.02159 15.1934 4.61171 14.618 4.98135C15.181 4.90981 15.718 4.74895 16.2159 4.51047C15.8423 5.11264 15.372 5.64317 14.8288 6.06647Z" fill="#240CF2"/>
</svg>
