<svg width="18" height="18" viewBox="0 0 18 18" fill="none" xmlns="http://www.w3.org/2000/svg">
<path fill-rule="evenodd" clip-rule="evenodd" d="M2.25 9C2.25 12.3375 4.6875 15.1125 7.875 15.675L7.91262 15.6449C7.90008 15.6425 7.88754 15.64 7.875 15.6375V10.875H6.1875V9H7.875V7.5C7.875 5.8125 8.9625 4.875 10.5 4.875C10.9875 4.875 11.5125 4.95 12 5.025V6.75H11.1375C10.3125 6.75 10.125 7.1625 10.125 7.6875V9H11.925L11.625 10.875H10.125V15.6375C10.1125 15.64 10.0999 15.6425 10.0874 15.6449L10.125 15.675C13.3125 15.1125 15.75 12.3375 15.75 9C15.75 5.2875 12.7125 2.25 9 2.25C5.2875 2.25 2.25 5.2875 2.25 9Z" fill="#240CF2"/>
</svg>
