<svg width="18" height="18" viewBox="0 0 18 18" fill="none" xmlns="http://www.w3.org/2000/svg">
<path d="M8.9999 2.45459C7.22232 2.45459 6.99924 2.46236 6.30108 2.49414C5.60428 2.52604 5.12866 2.63636 4.71249 2.79823C4.282 2.96541 3.91683 3.18904 3.55302 3.553C3.18894 3.91682 2.96531 4.282 2.79759 4.71236C2.63532 5.12868 2.52487 5.60445 2.49351 6.301C2.46228 6.99918 2.4541 7.22241 2.4541 9.00004C2.4541 10.7777 2.46201 11.0001 2.49365 11.6983C2.52569 12.3951 2.63601 12.8707 2.79773 13.2869C2.96504 13.7174 3.18867 14.0826 3.55261 14.4464C3.91628 14.8105 4.28146 15.0347 4.71167 15.2019C5.12811 15.3637 5.60387 15.474 6.30053 15.506C6.99869 15.5377 7.22164 15.5455 8.99908 15.5455C10.7768 15.5455 10.9992 15.5377 11.6974 15.506C12.3942 15.474 12.8703 15.3637 13.2868 15.2019C13.7171 15.0347 14.0817 14.8105 14.4454 14.4464C14.8095 14.0826 15.0331 13.7174 15.2009 13.287C15.3618 12.8707 15.4722 12.395 15.5049 11.6984C15.5363 11.0002 15.5445 10.7777 15.5445 9.00004C15.5445 7.22241 15.5363 6.99932 15.5049 6.30114C15.4722 5.60432 15.3618 5.12868 15.2009 4.7125C15.0331 4.282 14.8095 3.91682 14.4454 3.553C14.0813 3.18891 13.7173 2.96527 13.2864 2.79823C12.8691 2.63636 12.3932 2.52604 11.6964 2.49414C10.9983 2.46236 10.776 2.45459 8.99786 2.45459H8.9999ZM8.41274 3.63414C8.58701 3.63386 8.78145 3.63414 8.9999 3.63414C10.7475 3.63414 10.9546 3.64041 11.6447 3.67177C12.2829 3.70095 12.6292 3.80759 12.86 3.89718C13.1654 4.01582 13.3832 4.15763 13.6121 4.38673C13.8412 4.61582 13.983 4.834 14.1019 5.13945C14.1915 5.36991 14.2983 5.71627 14.3273 6.35445C14.3587 7.04445 14.3655 7.25173 14.3655 8.99854C14.3655 10.7454 14.3587 10.9526 14.3273 11.6426C14.2982 12.2808 14.1915 12.6272 14.1019 12.8576C13.9833 13.1631 13.8412 13.3806 13.6121 13.6095C13.383 13.8386 13.1655 13.9805 12.86 14.0991C12.6295 14.1891 12.2829 14.2955 11.6447 14.3246C10.9548 14.356 10.7475 14.3628 8.9999 14.3628C7.25218 14.3628 7.04505 14.356 6.35507 14.3246C5.71691 14.2952 5.37056 14.1885 5.1397 14.099C4.83426 13.9803 4.61608 13.8385 4.387 13.6094C4.15791 13.3803 4.0161 13.1627 3.89719 12.8571C3.80761 12.6266 3.70084 12.2803 3.67179 11.6421C3.64043 10.9521 3.63416 10.7448 3.63416 8.99691C3.63416 7.249 3.64043 7.04282 3.67179 6.35282C3.70097 5.71464 3.80761 5.36827 3.89719 5.13754C4.01583 4.83209 4.15791 4.61391 4.387 4.38482C4.61608 4.15573 4.83426 4.01391 5.1397 3.895C5.37042 3.805 5.71691 3.69864 6.35507 3.66932C6.95887 3.64204 7.19287 3.63386 8.41274 3.6325V3.63414ZM12.4937 4.72095C12.0601 4.72095 11.7083 5.07236 11.7083 5.50613C11.7083 5.93977 12.0601 6.29159 12.4937 6.29159C12.9273 6.29159 13.2791 5.93977 13.2791 5.50613C13.2791 5.0725 12.9273 4.72068 12.4937 4.72068V4.72095ZM8.9999 5.63868C7.14364 5.63868 5.63864 7.14373 5.63864 9.00004C5.63864 10.8564 7.14364 12.3607 8.9999 12.3607C10.8562 12.3607 12.3606 10.8564 12.3606 9.00004C12.3606 7.14373 10.856 5.63868 8.99977 5.63868H8.9999ZM8.9999 6.81823C10.2048 6.81823 11.1817 7.795 11.1817 9.00004C11.1817 10.205 10.2048 11.1819 8.9999 11.1819C7.79489 11.1819 6.81815 10.205 6.81815 9.00004C6.81815 7.795 7.79489 6.81823 8.9999 6.81823Z" fill="#240CF2"/>
</svg>
