<svg width="72" height="72" viewBox="0 0 72 72" fill="none" xmlns="http://www.w3.org/2000/svg">
<rect width="72" height="72" rx="12" fill="#F6F8FA"/>
<path d="M38.6667 40V42.6667C38.6667 43.0203 38.5262 43.3594 38.2761 43.6095C38.0261 43.8595 37.687 44 37.3333 44H28L24 48V34.6667C24 34.313 24.1405 33.9739 24.3905 33.7239C24.6406 33.4738 24.9797 33.3333 25.3333 33.3333H28M48 38.6667L44 34.6667H34.6667C34.313 34.6667 33.9739 34.5262 33.7239 34.2761C33.4738 34.0261 33.3333 33.687 33.3333 33.3333V25.3333C33.3333 24.9797 33.4738 24.6406 33.7239 24.3905C33.9739 24.1405 34.313 24 34.6667 24H46.6667C47.0203 24 47.3594 24.1405 47.6095 24.3905C47.8595 24.6406 48 24.9797 48 25.3333V38.6667Z" stroke="#240CF2" stroke-width="2.66667" stroke-linecap="round" stroke-linejoin="round"/>
</svg>
