<svg width="14" height="14" viewBox="0 0 14 14" fill="none" xmlns="http://www.w3.org/2000/svg">
<path d="M9.33333 10.4999C9.64275 10.4999 9.9395 10.6228 10.1583 10.8416C10.3771 11.0604 10.5 11.3572 10.5 11.6666C10.5 11.3572 10.6229 11.0604 10.8417 10.8416C11.0605 10.6228 11.3572 10.4999 11.6667 10.4999C11.3572 10.4999 11.0605 10.377 10.8417 10.1582C10.6229 9.93942 10.5 9.64267 10.5 9.33325C10.5 9.64267 10.3771 9.93942 10.1583 10.1582C9.9395 10.377 9.64275 10.4999 9.33333 10.4999ZM9.33333 3.49992C9.64275 3.49992 9.9395 3.62283 10.1583 3.84163C10.3771 4.06042 10.5 4.35717 10.5 4.66659C10.5 4.35717 10.6229 4.06042 10.8417 3.84163C11.0605 3.62283 11.3572 3.49992 11.6667 3.49992C11.3572 3.49992 11.0605 3.377 10.8417 3.15821C10.6229 2.93942 10.5 2.64267 10.5 2.33325C10.5 2.64267 10.3771 2.93942 10.1583 3.15821C9.9395 3.377 9.64275 3.49992 9.33333 3.49992ZM5.25 10.4999C5.25 9.57166 5.61875 8.68142 6.27513 8.02505C6.9315 7.36867 7.82174 6.99992 8.75 6.99992C7.82174 6.99992 6.9315 6.63117 6.27513 5.97479C5.61875 5.31842 5.25 4.42818 5.25 3.49992C5.25 4.42818 4.88125 5.31842 4.22487 5.97479C3.5685 6.63117 2.67826 6.99992 1.75 6.99992C2.67826 6.99992 3.5685 7.36867 4.22487 8.02505C4.88125 8.68142 5.25 9.57166 5.25 10.4999Z" stroke="#0A0D14" stroke-width="1.16667" stroke-linecap="round" stroke-linejoin="round"/>
</svg>
