<svg width="24" height="24" viewBox="0 0 24 24" fill="none" xmlns="http://www.w3.org/2000/svg">
<path fill-rule="evenodd" clip-rule="evenodd" d="M19.7717 8.08863C19.7785 8.26352 19.7807 8.43833 19.7807 8.61322C19.7807 13.9154 16.0509 20.0365 9.23031 20.0365C7.13515 20.0365 5.18695 19.3687 3.54549 18.232C3.83564 18.2638 4.13033 18.2877 4.42953 18.2877C6.16671 18.2877 7.76672 17.6437 9.03587 16.5625C7.41325 16.5387 6.04311 15.3701 5.57057 13.7803C5.79742 13.828 6.03104 13.8519 6.26995 13.8519C6.60683 13.8519 6.93391 13.8043 7.24744 13.7089C5.54945 13.3432 4.27051 11.7216 4.27051 9.77398C4.27051 9.75013 4.27051 9.74214 4.27051 9.72624C4.77094 10.0204 5.3437 10.2031 5.95191 10.227C4.95557 9.50357 4.30064 8.27145 4.30064 6.88032C4.30064 6.14898 4.48302 5.45736 4.80408 4.86116C6.63245 7.29365 9.36598 8.89149 12.4477 9.05843C12.3844 8.7643 12.352 8.45436 12.352 8.14433C12.352 5.92647 14.0123 4.12988 16.0607 4.12988C17.1271 4.12988 18.0903 4.61486 18.7663 5.3939C19.6127 5.21901 20.4055 4.88516 21.123 4.4241C20.8449 5.36212 20.2578 6.14894 19.4906 6.6418C20.2412 6.54641 20.9572 6.33194 21.6212 6.01397C21.123 6.81685 20.496 7.52423 19.7717 8.08863Z" fill="#C6F806"/>
</svg>
